<svg width="16" height="20" viewBox="0 0 16 20" fill="none" xmlns="http://www.w3.org/2000/svg">
<path d="M14.5124 1H1.48736C1.21836 1 1 1.19918 1 1.44495V18.1094C0.99962 18.4433 1.20389 18.7492 1.52905 18.9018C1.8544 19.0543 2.24582 19.0277 2.54261 18.8328L7.99991 15.2613L13.4574 18.8326C13.7544 19.0271 14.1454 19.0536 14.4706 18.9011C14.7955 18.7487 15 18.443 15 18.1094V1.44495C15 1.19918 14.7816 1 14.5124 1V1ZM14.0251 18.1093L8.28414 14.3521C8.11432 14.241 7.88587 14.241 7.71625 14.3521L1.9751 18.1094V1.88989H14.0251V18.1093Z" fill="#0172B9" stroke="#0172B9" stroke-width="1.2"/>
</svg>
