<svg>

<!-- ///////////adt
///video -->
	<symbol
		id="icon-6"
		viewBox="0 0 18 18"
		fill="none"
		xmlns="http://www.w3.org/2000/svg">
		<path
			d="M-1.8084e-06 16.8681C-1.75375e-06 16.243 0.503682 15.7362 1.125 15.7362L16.875 15.7362C17.4963 15.7362 18 16.243 18 16.8681C18 17.4932 17.4963 18 16.875 18L1.125 18C0.503682 18 -1.86305e-06 17.4932 -1.8084e-06 16.8681ZM9.79548 0.331532C9.57579 0.110498 9.28793 -1.03851e-06 9 -1.06369e-06C8.71214 -1.08885e-06 8.42414 0.110533 8.20452 0.331532L4.21857 4.3418C3.77923 4.78383 3.77923 5.50049 4.21857 5.94252C4.65792 6.38455 5.37022 6.38455 5.80957 5.94252L7.875 3.86447L7.875 12.5921C7.875 13.2173 8.37868 13.724 9 13.724C9.62132 13.724 10.125 13.2173 10.125 12.5921L10.125 3.86447L12.1904 5.94252C12.6298 6.38456 13.3421 6.38456 13.7814 5.94252C14.2208 5.50049 14.2208 4.78384 13.7814 4.3418L9.79548 0.331532Z"
			fill="#ffffff"/>
	</symbol>

<!-- //url -->
	<symbol
		id="icon-7"
		viewBox="0 0 20 20"
		fill="none"
		xmlns="http://www.w3.org/2000/svg"
								>
		<path
			d="M17.2 8.2H11.8V2.8C11.8 1.8064 10.9936 1 10 1C9.0064 1 8.2 1.8064 8.2 2.8V8.2H2.8C1.8064 8.2 1 9.0064 1 10C1 10.9936 1.8064 11.8 2.8 11.8H8.2V17.2C8.2 18.1936 9.0064 19 10 19C10.9936 19 11.8 18.1936 11.8 17.2V11.8H17.2C18.1936 11.8 19 10.9936 19 10C19 9.0064 18.1936 8.2 17.2 8.2Z"
			fill="#ffffff"
			stroke="white"
			stroke-width="0.8"
		/>
	</symbol>

<!-- /urlremove/ -->
  	<symbol
		id="icon-8"
        data-name="Livello 1"

        viewBox="0 0 128 128"
        xmlns="http://www.w3.org/2000/svg"
                  >

        <path
        	d="M64,0a64,64,0,1,0,64,64A64.07,64.07,0,0,0,64,0Zm0,122a58,58,0,1,1,58-58A58.07,58.07,0,0,1,64,122Z"
        	fill="#0172B9"/>
        <path
            d="M92.12,35.79a3,3,0,0,0-4.24,0L64,59.75l-23.87-24A3,3,0,0,0,35.88,40L59.76,64,35.88,88a3,3,0,0,0,4.25,4.24L64,68.25l23.88,24A3,3,0,0,0,92.13,88L68.24,64,92.13,40A3,3,0,0,0,92.12,35.79Z"
            fill="#0172B9"/>
    </symbol>
<!-- /urlsuccess/ -->
	<symbol
		id="icon-9"
		enable-background="new 0 0 64 64"
		version="1.1"
		viewBox="0 0 64 64"
		xml:space="preserve"
		xmlns="http://www.w3.org/2000/svg"
		xmlns:xlink="http://www.w3.org/1999/xlink">
		<g
			id="Glyph_copy_2">
			<path
				d="M32,64c17.645,0,32-14.355,32-32S49.645,0,32,0S0,14.355,0,32S14.355,64,32,64z
				M19.538,30.269l6.954,6.869L43.04,16.72
				l5.092,4.491L27.029,47.247L14.953,35.322L19.538,30.269z"
				fill="#0172B9"/>
		</g>
	</symbol>

<!-- /smallModal/ -->
	<symbol
		id="icon-10"
		viewBox="0 0 30 30"
		fill="none"
		xmlns="http://www.w3.org/2000/svg">
		<path
			d="M15.0005 8.83386C13.7632 8.83386 12.5537 9.20076 11.5249 9.88816C10.4961 10.5756 9.69432 11.5526 9.22083 12.6957C8.74734 13.8388 8.62345 15.0966 8.86484 16.3101C9.10622 17.5237 9.70203 18.6383 10.5769 19.5132C11.4518 20.3881 12.5665 20.9839 13.78 21.2253C14.9935 21.4667 16.2514 21.3428 17.3945 20.8693C18.5376 20.3958 19.5146 19.594 20.202 18.5652C20.8894 17.5365 21.2563 16.327 21.2563 15.0897C21.2545 13.4311 20.5948 11.841 19.422 10.6682C18.2492 9.49537 16.659 8.83569 15.0005 8.83386ZM15.0005 20.1931C13.9911 20.1931 13.0044 19.8938 12.1651 19.333C11.3259 18.7723 10.6718 17.9752 10.2855 17.0427C9.89923 16.1102 9.79817 15.084 9.99508 14.0941C10.192 13.1041 10.6781 12.1947 11.3918 11.481C12.1055 10.7673 13.0149 10.2812 14.0048 10.0843C14.9948 9.8874 16.0209 9.98846 16.9535 10.3747C17.886 10.761 18.683 11.4151 19.2438 12.2544C19.8046 13.0936 20.1039 14.0803 20.1039 15.0897C20.1024 16.4427 19.5643 17.74 18.6075 18.6967C17.6507 19.6535 16.3535 20.1916 15.0005 20.1931Z"
			fill="#333333"/>
		<path
			d="M28.5299 12.0198L26.6611 11.8222C26.5671 11.8123 26.4781 11.7753 26.4048 11.7156C26.3314 11.656 26.2771 11.5763 26.2482 11.4864C26.0342 10.8187 25.7609 10.1714 25.4317 9.55232C25.3863 9.46773 25.3668 9.37163 25.3758 9.27605C25.3848 9.18047 25.4217 9.08966 25.482 9.01498L26.6739 7.53992C26.9298 7.22437 27.0595 6.82512 27.038 6.41945C27.0164 6.01377 26.8452 5.6305 26.5574 5.3438L24.6563 3.44301C24.3697 3.15507 23.9864 2.98375 23.5807 2.96228C23.1751 2.94081 22.7758 3.0707 22.4605 3.32679L20.9525 4.54503C20.8785 4.60464 20.7887 4.6414 20.6942 4.65082C20.5996 4.66023 20.5044 4.64189 20.4201 4.59804C19.8124 4.28394 19.1785 4.0235 18.5256 3.81968C18.4345 3.79134 18.3538 3.73699 18.2932 3.66334C18.2327 3.58969 18.195 3.49995 18.1848 3.40515L17.9797 1.47012C17.9373 1.06615 17.7466 0.692239 17.4445 0.420692C17.1425 0.149145 16.7504 -0.000746404 16.3442 2.795e-06H13.6565C13.2503 -0.000737961 12.8582 0.149199 12.5561 0.420814C12.2541 0.692429 12.0634 1.06642 12.0211 1.47045L11.816 3.40482C11.8059 3.49968 11.7682 3.58949 11.7077 3.66321C11.6471 3.73692 11.5663 3.79131 11.4752 3.81968C10.8223 4.0235 10.1884 4.28394 9.58071 4.59804C9.49641 4.64189 9.40117 4.66023 9.30661 4.65082C9.21206 4.6414 9.1223 4.60464 9.04831 4.54503L7.54065 3.32679C7.22523 3.07068 6.82596 2.94077 6.42022 2.96225C6.01448 2.98372 5.63116 3.15504 5.34453 3.44301L3.44374 5.3438C3.156 5.63049 2.98482 6.01372 2.96335 6.41934C2.94188 6.82496 3.07164 7.22413 3.32752 7.53959L4.51942 9.01531C4.57971 9.08994 4.61665 9.18069 4.62561 9.27622C4.63457 9.37174 4.61516 9.46778 4.56979 9.55232C4.24047 10.1716 3.96709 10.8191 3.75291 11.487C3.72406 11.5769 3.66969 11.6564 3.59644 11.7159C3.52319 11.7754 3.43422 11.8124 3.34036 11.8222L1.47151 12.0198C1.06748 12.062 0.693454 12.2525 0.421779 12.5545C0.150104 12.8566 8.42852e-05 13.2486 0.000735033 13.6548V16.3432C1.06881e-05 16.7494 0.150005 17.1415 0.421694 17.4436C0.693383 17.7456 1.06745 17.9361 1.47151 17.9783L3.28439 18.1709C3.37965 18.1809 3.46984 18.2188 3.54369 18.2798C3.61753 18.3409 3.67175 18.4223 3.69957 18.514C3.9088 19.2079 4.18193 19.8809 4.51547 20.5244C4.55906 20.6084 4.5772 20.7034 4.56767 20.7976C4.55814 20.8918 4.52135 20.9812 4.4618 21.0548L3.32719 22.4591C3.07129 22.7746 2.94152 23.1738 2.96299 23.5795C2.98446 23.9852 3.15564 24.3685 3.44341 24.6552L5.34453 26.556C5.63117 26.8438 6.01439 27.015 6.42001 27.0366C6.82563 27.0581 7.22482 26.9284 7.54032 26.6726L8.91298 25.5636C8.98724 25.5034 9.0776 25.4664 9.17276 25.4573C9.26792 25.4482 9.36366 25.4673 9.44802 25.5123C10.1027 25.8615 10.789 26.1482 11.4976 26.3683C11.5882 26.3967 11.6686 26.4509 11.7287 26.5244C11.7888 26.5979 11.826 26.6874 11.8358 26.7819L12.0211 28.5292C12.0635 28.9333 12.2541 29.3072 12.5562 29.5789C12.8583 29.8505 13.2503 30.0006 13.6565 30H16.3446C16.7509 30.0006 17.143 29.8505 17.445 29.5788C17.7471 29.307 17.9377 28.933 17.98 28.5289L18.1653 26.7815C18.1752 26.6871 18.2125 26.5977 18.2727 26.5242C18.3328 26.4508 18.4132 26.3966 18.5038 26.3683C19.2123 26.1481 19.8985 25.8615 20.5531 25.5123C20.6375 25.4672 20.7333 25.4481 20.8286 25.4573C20.9238 25.4665 21.0142 25.5036 21.0885 25.564L22.4605 26.6722C22.7759 26.9283 23.1752 27.0581 23.5809 27.0366C23.9866 27.0152 24.3699 26.8439 24.6566 26.556L26.5574 24.6552C26.8451 24.3685 27.0163 23.9852 27.0378 23.5795C27.0593 23.1738 26.9295 22.7746 26.6736 22.4591L25.539 21.0551C25.4795 20.9815 25.4427 20.892 25.4331 20.7978C25.4236 20.7035 25.4417 20.6085 25.4853 20.5244C25.8188 19.8808 26.092 19.2078 26.3015 18.514C26.3293 18.4222 26.3835 18.3406 26.4575 18.2795C26.5314 18.2184 26.6217 18.1805 26.7171 18.1706L28.5299 17.9779C28.934 17.9358 29.3081 17.7453 29.5798 17.4432C29.8514 17.1412 30.0014 16.7491 30.0007 16.3429V13.6548C30.0014 13.2486 29.8513 12.8566 29.5797 12.5545C29.308 12.2525 28.934 12.062 28.5299 12.0198ZM28.8483 16.3432C28.8485 16.4647 28.8036 16.5819 28.7224 16.6722C28.6411 16.7625 28.5293 16.8195 28.4084 16.8321L26.5956 17.0247C26.2747 17.0583 25.9709 17.186 25.7224 17.3917C25.4739 17.5975 25.2917 17.8721 25.1989 18.1811C25.0097 18.8073 24.7631 19.4147 24.4623 19.9956C24.3157 20.2785 24.2547 20.598 24.2868 20.9151C24.3188 21.2321 24.4425 21.533 24.6428 21.7808L25.7774 23.1854C25.8546 23.2797 25.894 23.3993 25.8879 23.521C25.8818 23.6427 25.8307 23.7578 25.7444 23.8439L23.8437 25.7447C23.7578 25.8313 23.6428 25.8827 23.5211 25.8891C23.3994 25.8955 23.2796 25.8564 23.1852 25.7793L21.8128 24.6674C21.5627 24.4647 21.2584 24.3403 20.9379 24.3098C20.6174 24.2792 20.2951 24.3438 20.0111 24.4955C19.4202 24.8104 18.8009 25.0686 18.1614 25.267C17.8555 25.3618 17.5841 25.5443 17.3809 25.7918C17.1777 26.0394 17.0516 26.3412 17.0182 26.6597L16.8325 28.4048C16.82 28.5258 16.7631 28.6378 16.6727 28.7192C16.5823 28.8006 16.4649 28.8455 16.3433 28.8453H13.6565C13.535 28.8455 13.4176 28.8007 13.3272 28.7193C13.2368 28.638 13.1798 28.526 13.1673 28.4051L12.9816 26.6581C12.948 26.34 12.822 26.0387 12.6191 25.7914C12.4161 25.5442 12.1452 25.3619 11.8397 25.267C11.2005 25.0686 10.5815 24.8103 9.99096 24.4955C9.70712 24.3437 9.38478 24.279 9.06435 24.3096C8.74391 24.3402 8.43963 24.4646 8.18961 24.6674L6.81695 25.7763C6.72238 25.8531 6.60265 25.8921 6.48098 25.8857C6.3593 25.8792 6.24436 25.8278 6.15844 25.7414L4.25766 23.8406C4.17125 23.7547 4.11986 23.6397 4.11347 23.518C4.10708 23.3964 4.14615 23.2766 4.22309 23.1821L5.3577 21.7779C5.55796 21.53 5.68166 21.2292 5.71371 20.9121C5.74575 20.5951 5.68474 20.2756 5.53813 19.9926C5.23736 19.4122 4.9908 18.8052 4.80159 18.1794C4.70868 17.8705 4.52652 17.596 4.27801 17.3903C4.0295 17.1846 3.72573 17.057 3.40489 17.0234L1.59202 16.8308C1.4712 16.8182 1.35935 16.7612 1.2781 16.6709C1.19685 16.5806 1.15197 16.4634 1.15214 16.3419V13.6548C1.15197 13.5333 1.19685 13.4161 1.2781 13.3258C1.35935 13.2355 1.4712 13.1785 1.59202 13.1659L3.46087 12.9683C3.77692 12.9348 4.07641 12.8102 4.32292 12.6095C4.56942 12.4089 4.75231 12.141 4.84933 11.8383C5.04265 11.2359 5.28925 10.6519 5.5862 10.0933C5.73791 9.80923 5.80258 9.48676 5.77213 9.16617C5.74168 8.84557 5.61747 8.54105 5.41499 8.29062L4.22309 6.81523C4.14654 6.72088 4.10771 6.60149 4.1141 6.48016C4.12048 6.35883 4.17163 6.24417 4.25766 6.15837L6.1591 4.25726C6.24495 4.17073 6.35991 4.11923 6.48162 4.11278C6.60334 4.10633 6.7231 4.14539 6.81761 4.22236L8.32559 5.4406C8.57363 5.64065 8.8745 5.76423 9.19154 5.79627C9.50858 5.82831 9.8281 5.76742 10.1111 5.62103C10.6593 5.33765 11.231 5.10255 11.82 4.9184C12.1257 4.82313 12.3968 4.64051 12.6 4.39303C12.8032 4.14556 12.9295 3.84405 12.9635 3.52566L13.1673 1.5903C13.1798 1.46939 13.2368 1.35745 13.3272 1.27618C13.4176 1.19491 13.535 1.15009 13.6565 1.15042H16.3446C16.4661 1.15009 16.5835 1.19491 16.6739 1.27618C16.7643 1.35745 16.8213 1.46939 16.8338 1.5903L17.039 3.52533C17.0729 3.84368 17.1993 4.14514 17.4025 4.39255C17.6057 4.63997 17.8768 4.82253 18.1825 4.91774C18.7714 5.10189 19.3432 5.33699 19.8913 5.62037C20.1743 5.7668 20.4939 5.82771 20.8109 5.79567C21.128 5.76364 21.4288 5.64003 21.6768 5.43994L23.1852 4.2217C23.2795 4.14513 23.399 4.10631 23.5203 4.11275C23.6417 4.1192 23.7563 4.17046 23.842 4.2566L25.7428 6.15738C25.8286 6.24339 25.8794 6.35816 25.8855 6.47949C25.8916 6.60081 25.8525 6.72009 25.7757 6.81425L24.5838 8.28963C24.3814 8.54006 24.2571 8.84458 24.2267 9.16518C24.1962 9.48577 24.2609 9.80824 24.4126 10.0923C24.7095 10.6509 24.956 11.2349 25.1492 11.8373C25.2461 12.1402 25.429 12.4082 25.6756 12.609C25.9222 12.8097 26.2218 12.9345 26.538 12.968L28.4068 13.1656C28.5276 13.1782 28.6395 13.2352 28.7207 13.3255C28.802 13.4158 28.8468 13.533 28.8467 13.6545L28.8483 16.3432Z"
			fill="#333333"/>
	</symbol>

<!-- /headerIcon/ -->
	<symbol
		id="icon-11"
		viewBox="0 0 32 32"
		fill="none"
		xmlns="http://www.w3.org/2000/svg">
		<path
			d="M27.3137 20.6863C25.5711 18.9436 23.4968 17.6536 21.2337 16.8726C23.6576 15.2032 25.25 12.4093 25.25 9.25C25.25 4.14956 21.1004 0 16 0C10.8996 0 6.75 4.14956 6.75 9.25C6.75 12.4093 8.34244 15.2032 10.7664 16.8726C8.50325 17.6536 6.429 18.9436 4.68631 20.6863C1.66431 23.7083 0 27.7262 0 32H2.5C2.5 24.5561 8.55606 18.5 16 18.5C23.4439 18.5 29.5 24.5561 29.5 32H32C32 27.7262 30.3357 23.7083 27.3137 20.6863ZM16 16C12.2781 16 9.25 12.972 9.25 9.25C9.25 5.528 12.2781 2.5 16 2.5C19.7219 2.5 22.75 5.528 22.75 9.25C22.75 12.972 19.7219 16 16 16Z"
			fill="white"/>
	</symbol>
</svg>
